<?xml version="1.0" encoding="utf-8"?>
<!-- Generator: Adobe Illustrator 27.6.1, SVG Export Plug-In . SVG Version: 6.00 Build 0)  -->
<svg version="1.1" id="Слой_1" xmlns="http://www.w3.org/2000/svg" xmlns:xlink="http://www.w3.org/1999/xlink" x="0px" y="0px"
	 viewBox="0 0 581 113" style="enable-background:new 0 0 581 113;" xml:space="preserve">
<style type="text/css">
	.st0{fill:#231F20;}
	.st1{fill:#FED000;}
</style>
<g>
	<path class="st0" d="M181.1,82.5v-1h6.3c1.4,0,2.7-0.2,3.7-0.6c1.1-0.4,1.9-1.2,2.5-2.2s0.9-2.5,0.9-4.5V34.6c0-2-0.4-3.5-1.2-4.5
		s-2.1-1.8-3.8-2.1c-1.7-0.4-4.1-0.6-7-0.6h-1.4v-1h36.7l16.3,37.5l15.2-37.5h33.4v1h-1c-2.1,0-3.8,0.2-5.2,0.6
		c-1.3,0.4-2.3,1.2-3,2.2c-0.6,1.1-0.9,2.7-0.9,4.8v38.7c0,2,0.3,3.6,0.8,4.7s1.5,1.9,2.8,2.3s3.2,0.6,5.4,0.6h1v1H240v-1h1.6
		c1.8,0,3.2-0.2,4.4-0.6s2.1-1.2,2.7-2.3c0.6-1.1,0.9-2.7,0.9-4.7V29.3h-0.3L228,82.5h-8.7L196,32.3h-0.3v41.5c0,2,0.2,3.6,0.6,4.7
		c0.4,1.1,1.2,1.9,2.2,2.3c1.1,0.4,2.5,0.6,4.4,0.6h5.1v1L181.1,82.5L181.1,82.5z"/>
	<path class="st0" d="M286.6,82.5v-1h4.6c1.1,0,2-0.2,2.7-0.6s1.4-1.2,2.2-2.3c0.7-1.1,1.5-2.6,2.5-4.4L322,26.4h20.6l27.3,50.4
		c0.9,1.7,1.8,3,2.7,3.7c0.9,0.7,2,1,3.4,1v1h-38.6v-1c2.7,0,4.6-0.2,5.6-0.5c1.1-0.3,1.6-1.2,1.6-2.5c0-0.6-0.1-1.2-0.3-1.9
		c-0.2-0.7-0.5-1.5-0.9-2.3l-10.1-20.1h-3v28.4H313V54.1h-3.2l-9.4,19.3c-0.5,1-0.9,1.9-1.1,2.7c-0.3,0.8-0.4,1.6-0.4,2.2
		c0,1.2,0.7,2,2,2.5s3.8,0.7,7.2,0.7v1L286.6,82.5L286.6,82.5z M310.3,53.1h22.4L325,37.7c-0.4-0.8-0.8-1.7-1.3-2.5
		c-0.4-0.8-0.8-1.6-1.2-2.5c-0.4-0.9-0.8-1.8-1.2-2.7c-0.3,0.9-0.7,1.8-1.1,2.7s-0.8,1.7-1.2,2.5c-0.4,0.8-0.8,1.6-1.2,2.5
		L310.3,53.1z"/>
	<path class="st0" d="M390.5,82.5v-1h1.5c1.7,0,3.1-0.2,4.4-0.7c1.2-0.5,2.2-1.2,2.8-2.2c0.7-1,1-2.4,1-4v-47H399
		c-4.6,0-8.4,0.5-11.1,1.4c-2.8,0.9-4.9,2.6-6.3,4.9s-2.3,5.4-2.8,9.4l-0.5,4H377l0.9-20.7h69.3l0.9,20.7h-1.3l-0.5-4
		c-0.5-4-1.5-7.1-2.8-9.4c-1.4-2.3-3.5-3.9-6.3-4.9c-2.8-0.9-6.5-1.4-11.1-1.4H425v47c0,1.7,0.3,3,0.9,4s1.5,1.8,2.7,2.2
		c1.2,0.5,2.6,0.7,4.2,0.7h2v1H390.5z"/>
	<path class="st0" d="M459.5,105.6v-1h0.8c1.4,0,2.8-0.2,4.2-0.5c1.4-0.3,2.6-1,3.5-2s1.4-2.6,1.4-4.7v-63c0-1.7-0.2-3.1-0.7-4.1
		s-1.2-1.7-2.2-2.1s-2.4-0.6-4.3-0.6h-0.3v-1h32v14.2h0.3c1.2-5.4,3.4-9.4,6.8-11.9s7.7-3.7,13-3.7c7.7,0,13.5,2.5,17.6,7.4
		c4,4.9,6.1,12.2,6.1,21.7c0,9.7-2.1,17-6.2,22c-4.1,5-10.3,7.4-18.5,7.4c-5.6,0-9.9-1.2-12.6-3.6c-2.8-2.4-4.8-6.1-6.1-11.3H494
		c0.1,2.2,0.1,4.4,0.1,6.6s0,4.5,0,6.7v15.4c0,2.1,0.5,3.6,1.4,4.7c0.9,1,2.1,1.7,3.5,2s2.8,0.5,4.2,0.5h3.3v1L459.5,105.6
		L459.5,105.6z M504.2,80.2c2,0,3.7-1,4.9-3.1c1.3-2.1,2.2-5,2.8-9c0.6-3.9,0.9-8.7,0.9-14.2c0-5.2-0.3-9.5-0.9-13.1
		c-0.6-3.6-1.6-6.4-2.9-8.3c-1.3-1.9-2.9-2.9-4.9-2.9s-3.8,1-5.3,3s-2.7,4.8-3.5,8.5s-1.3,8-1.3,13c0,5.5,0.4,10.2,1.3,14.1
		s2.1,6.8,3.7,8.9C500.5,79.1,502.3,80.2,504.2,80.2z"/>
</g>
<path class="st1" d="M9,84.6v-1h4.6c1.1,0,2-0.2,2.7-0.6s1.4-1.2,2.2-2.3c0.7-1.1,1.5-2.6,2.5-4.4l23.5-47.7H65L92.3,79
	c0.9,1.7,1.8,3,2.7,3.7c0.9,0.7,2,1,3.4,1v1H59.8v-1c2.7,0,4.6-0.2,5.6-0.5c1.1-0.3,1.6-1.2,1.6-2.5c0-0.6-0.1-1.2-0.3-1.9
	c-0.2-0.7-0.5-1.5-0.9-2.3L55.7,56.2h-3v28.4H35.3V56.2h-3.2l-9.4,19.3c-0.5,1-0.9,1.9-1.1,2.7c-0.3,0.8-0.4,1.6-0.4,2.2
	c0,1.2,0.7,2,2,2.5s3.8,0.7,7.2,0.7v1C30.4,84.6,9,84.6,9,84.6z M32.8,55.1h22.4l-7.7-15.4c-0.4-0.8-0.8-1.7-1.3-2.5
	c-0.4-0.8-0.8-1.6-1.2-2.5s-0.8-1.8-1.2-2.7c-0.3,0.9-0.7,1.8-1.1,2.7c-0.4,0.9-0.8,1.7-1.2,2.5s-0.8,1.6-1.2,2.5L32.8,55.1z"/>
</svg>
